<?xml version="1.0" encoding="utf-8"?>
<!-- Generator: Adobe Illustrator 19.0.0, SVG Export Plug-In . SVG Version: 6.00 Build 0)  -->
<!DOCTYPE svg PUBLIC "-//W3C//DTD SVG 1.1//EN" "http://www.w3.org/Graphics/SVG/1.1/DTD/svg11.dtd">
<svg version="1.1" id="Calque_1" xmlns="http://www.w3.org/2000/svg" xmlns:xlink="http://www.w3.org/1999/xlink" x="0px" y="0px"
	 viewBox="0 0 400 100" style="enable-background:new 0 0 400 100;" xml:space="preserve">
<style type="text/css">
	.st0{fill:#00778E;}
</style>
<path class="st0" d="M122.3,57v-0.8v-0.8V21.3c0-1,0.9-1.9,1.9-1.9c1.1,0,2,0.9,2,1.9v22.8c3.5-4.7,9-7.7,15.2-7.7
	c10.7,0,19.1,8.9,19.1,19.9c0,10.8-8.5,19.7-19.1,19.7c-6.2,0-11.7-3-15.2-7.7v5.7c0,1-0.9,1.9-2,1.9c-1,0-1.9-0.9-1.9-1.9V57z
	 M126.2,56.2c0,8.7,6.9,15.7,15.2,15.7c8.4,0,15.2-7,15.2-15.7c0-8.8-6.8-15.9-15.2-15.9c-8.2,0-14.8,6.8-15.2,15.3V56.2z"/>
<path class="st0" d="M173.4,55.1c0-0.9,0.6-1.5,1.5-1.5h17.2c0.8,0,1.5,0.6,1.5,1.5c0,1-0.7,1.6-1.5,1.6h-17.2
	C174,56.7,173.4,56,173.4,55.1z"/>
<path class="st0" d="M205.6,56.2c0-11,8.6-19.9,19.2-19.9c10.2,0,18.2,8.1,19,18.4v0.1v0.2c0,1-0.9,1.8-1.9,1.8h-32.4
	c0.4,8.6,7.2,15.2,15.3,15.2c5.2,0,10.1-2.7,12.8-7.2c0.6-1,1.8-1.1,2.6-0.6c0.9,0.6,1.2,1.8,0.6,2.7c-3.4,5.4-9.3,9-16,9
	C214.2,75.9,205.6,67,205.6,56.2z M209.7,53h29.9c-1.3-7.4-7.6-12.8-14.8-12.8C217.4,40.2,211.2,45.5,209.7,53z"/>
<path class="st0" d="M289.2,68.2c-3.5,4.7-9,7.7-15.2,7.7c-10.7,0-19.1-8.9-19.1-19.7c0-11,8.5-19.9,19.1-19.9
	c6.2,0,11.7,3.1,15.2,7.7V21.3c0-1,0.9-1.9,2-1.9c1,0,1.9,0.9,1.9,1.9v34.1v0.8v17.8c0,1-0.9,1.9-1.9,1.9c-1.1,0-2-0.9-2-1.9V68.2z
	 M289.2,56.8v-1.3c-0.3-8.5-7-15.3-15.2-15.3c-8.3,0-15.2,7.1-15.2,15.9c0,8.7,6.9,15.7,15.2,15.7C282.2,71.9,288.9,65.2,289.2,56.8
	z"/>
<path class="st0" d="M306.8,56.2c0-11,8.6-19.9,19.2-19.9c10.2,0,18.2,8.1,19,18.4v0.1v0.2c0,1-0.9,1.8-1.9,1.8h-32.4
	c0.4,8.6,7.2,15.2,15.3,15.2c5.2,0,10.1-2.7,12.8-7.2c0.6-1,1.8-1.1,2.6-0.6c0.9,0.6,1.2,1.8,0.6,2.7c-3.4,5.4-9.3,9-16,9
	C315.4,75.9,306.8,67,306.8,56.2z M310.9,53h29.9c-1.3-7.4-7.6-12.8-14.8-12.8C318.6,40.2,312.4,45.5,310.9,53z"/>
<path class="st0" d="M387.1,52.5c0-6.7-5.4-12.2-12.2-12.2c-6.7,0-12.1,5.5-12.3,12.2v21.5v0.3c-0.1,0.3-0.2,0.6-0.4,0.9
	c-0.3,0.5-0.9,0.7-1.5,0.7h-0.5c-0.6-0.2-1-0.6-1.3-1c-0.1-0.1-0.1-0.2-0.1-0.2c0-0.1-0.1-0.2-0.1-0.2v-0.5V52.5v-0.6V38.4
	c0-1,0.8-1.9,1.9-1.9c1,0,1.9,0.9,1.9,1.9v3.8c2.9-3.5,7.3-5.7,12.3-5.7c8.9,0,16.1,7.3,16.1,16.1v21.5c0,1.1-0.9,1.9-1.9,1.9
	c-1,0-1.9-0.8-1.9-1.9V52.5z"/>
<g>
	<path class="st0" d="M101,50c0-27.3-22.1-49.5-49.5-49.5C24.2,0.5,2,22.7,2,50c0,26.6,20.9,48.2,47.1,49.4
		c-0.1-2.7-0.2-5.3-0.2-7.8c0-2,0-4,0.1-5.9c-0.5-0.1-1-0.2-1.4-0.2c-2.5-0.5-4.7-1.4-6.4-2.6c-4.1-2.7-5.4-7.4-5.8-10.7
		c-1.5-0.1-2.9-0.6-4-1.6c-1.4-1.2-2.3-2.8-2.4-4.7c-0.2-1.8,0.4-3.6,1.6-5c1.2-1.4,2.8-2.3,4.7-2.4c3.8-0.3,7.1,2.5,7.5,6.3v0
		c0.3,3.5-2.1,6.7-5.5,7.4c0,0.3,0.1,0.5,0.1,0.8c0.8,3.5,2.4,6.2,4.8,7.9c1.6,1.1,3.6,1.9,5.9,2.4c0.3,0.1,0.7,0.1,1,0.2
		c0.3-6.1,0.9-11.7,1.8-16.6c-0.1-0.9-0.3-1.8-0.5-2.6c-0.8-4.2-2-7.8-3.4-10.8c-2.2-4.6-5.3-7.9-9.3-9.7c-0.1-0.1-0.2-0.1-0.3-0.1
		c-1.1,1.9-3.1,3.3-5.4,3.5c-0.2,0-0.4,0-0.6,0c-3.5,0-6.6-2.7-6.9-6.3c-0.3-3.8,2.5-7.1,6.3-7.5c3.8-0.3,7.1,2.5,7.5,6.3
		c0.1,0.7,0,1.3-0.1,1.9c3.5,1.4,8,4.5,11.1,11c1.2,2.4,2.1,5.3,2.9,8.5c1.9-7.1,4.5-12.3,7.3-16.2c0.3-2.1,0-4.3-0.9-6.4
		c-0.8-1.8-2-3.8-3.6-5.7c-0.3-0.4-0.7-0.8-1.1-1.3c-0.9,0.6-2,1.1-3.3,1.2c-0.2,0-0.4,0-0.6,0c-1.6,0-3.2-0.6-4.4-1.6
		c-1.4-1.2-2.3-2.8-2.4-4.7c-0.2-1.8,0.4-3.6,1.6-5c1.2-1.4,2.8-2.3,4.7-2.4c3.8-0.3,7.1,2.5,7.5,6.3v0c0.2,1.9-0.4,3.6-1.5,5
		c0.4,0.5,0.8,0.9,1.2,1.3c1.7,2.1,3,4.1,3.9,6.1c0.7,1.7,1,3.3,1.1,4.8c2.8-3.3,5.7-5.4,7.8-6.6c-0.4-0.8-0.7-1.7-0.8-2.7
		c-0.3-3.8,2.5-7.1,6.3-7.5c1.8-0.2,3.6,0.4,5,1.6c1.4,1.2,2.3,2.8,2.4,4.7c0.3,3.8-2.5,7.1-6.3,7.5c-0.2,0-0.4,0-0.6,0
		c-1.4,0-2.6-0.4-3.7-1.1c0,0,0,0,0,0c-1.3,0.7-3.4,2-5.6,4.2c-5.8,5.7-9.8,14-11.8,24.8c-0.2,0.8-0.3,1.7-0.4,2.5l0,0l0,0
		c-0.3,2.1-0.6,4.3-0.8,6.6c1.3-0.2,2.6-0.5,3.8-0.8c3.8-1,7.1-2.2,9.8-3.7c3.2-1.8,5.6-4.1,7.2-7c-2.2-1.4-3.6-3.9-3.3-6.7
		c0.5-3.8,3.9-6.5,7.7-6c1.8,0.2,3.5,1.1,4.6,2.6c1.1,1.4,1.6,3.2,1.4,5.1c-0.4,3.5-3.4,6.1-6.8,6.1c-0.3,0-0.5,0-0.8,0
		c-0.2,0-0.5-0.1-0.7-0.1c-1.4,2.7-3.9,5.9-8.2,8.3c-2.8,1.6-6.2,2.9-10.2,3.9c-1.4,0.4-3,0.7-4.6,1c-0.3,4-0.5,8.3-0.5,12.9
		c0,2.5,0.1,5.1,0.2,7.8C79.4,99,101,77.1,101,50z"/>
</g>
</svg>
